<?xml version="1.0" encoding="UTF-8" standalone="no"?>
<svg
   xmlns:dc="http://purl.org/dc/elements/1.1/"
   xmlns:cc="http://creativecommons.org/ns#"
   xmlns:rdf="http://www.w3.org/1999/02/22-rdf-syntax-ns#"
   xmlns:svg="http://www.w3.org/2000/svg"
   xmlns="http://www.w3.org/2000/svg"
   xmlns:sodipodi="http://sodipodi.sourceforge.net/DTD/sodipodi-0.dtd"
   xmlns:inkscape="http://www.inkscape.org/namespaces/inkscape"
   version="1.0"
   width="62pt"
   height="62pt"
   viewBox="0 0 62 62"
   preserveAspectRatio="xMidYMid meet"
   id="svg8"
   sodipodi:docname="black.svg"
   inkscape:version="0.92.3 (2405546, 2018-03-11)">
  <defs
     id="defs12" />
  <sodipodi:namedview
     pagecolor="#ffffff"
     bordercolor="#666666"
     borderopacity="1"
     objecttolerance="10"
     gridtolerance="10"
     guidetolerance="10"
     inkscape:pageopacity="0"
     inkscape:pageshadow="2"
     inkscape:window-width="681"
     inkscape:window-height="706"
     id="namedview10"
     showgrid="false"
     inkscape:zoom="3.9333333"
     inkscape:cx="2.4152542"
     inkscape:cy="30"
     inkscape:window-x="676"
     inkscape:window-y="0"
     inkscape:window-maximized="0"
     inkscape:current-layer="svg8" />
  <metadata
     id="metadata2">
Created by potrace 1.15, written by Peter Selinger 2001-2017
<rdf:RDF>
  <cc:Work
     rdf:about="">
    <dc:format>image/svg+xml</dc:format>
    <dc:type
       rdf:resource="http://purl.org/dc/dcmitype/StillImage" />
    <dc:title></dc:title>
  </cc:Work>
</rdf:RDF>
</metadata>
  <g
     transform="matrix(0.1,0,0,-0.1,9.0000005,50.250001)"
     id="g6"
     style="fill:#000000;stroke:none">
    <path
       d="m 182,358 c -7,-7 -12,-20 -12,-30 0,-9 -8,-33 -17,-52 -13,-29 -14,-40 -5,-61 6,-14 8,-25 3,-25 -16,0 -50,-65 -57,-108 L 87,40 h 133 133 l -7,42 c -7,43 -41,108 -57,108 -5,0 -3,11 3,25 9,21 8,32 -5,61 -9,19 -17,43 -17,52 0,25 -20,42 -50,42 -14,0 -31,-5 -38,-12 z"
       id="path4"
       inkscape:connector-curvature="0" />
  </g>
</svg>
